PathFileType	4	(X/Y/Z)	C:\Users\Basilio\Documents\Thesis Gigler\squatting_fais\c3dfiles\039\SJ_pre3\markers_experimental.trc
DataRate	CameraRate	NumFrames	NumMarkers	Units	OrigDataRate	OrigDataStartFrame	OrigNumFrames
200.000000	200.000000	4	63	mm	200.000000	0	1760
Frame#	Time	FHD			LBHD			RBHD			C7			T10			CLAV			LSHO			LUUPA			LMUPA			LDUPA			LLEP			LMEP			LRAD			LUL			LRFIN			RSHO			RUPA1			RMUPA			RDUPA			RLEP			RMEP			RRAD			RUL			RUFIN			LASI			RASI			USACR			LSACR			RSACR			LTHI1			LTHI2			LTHI3			LTHI4			LLFC			LMFC			LTIB1			LTIB2			LTIB3			LTIB4			LLMAL			LMMAL			LHEE			LMT1			LMT2			LMT5			RTHI			RTHI2			RTHI3			RTHI4			RLFC			RMFC			RTIB1			RTIB2			RTIB3			RTIB4			RLMAL			RMMAL			RHEE			RMT1			RMT2			RMT5			*61			*62			
		X1	Y1	Z1	X2	Y2	Z2	X3	Y3	Z3	X4	Y4	Z4	X5	Y5	Z5	X6	Y6	Z6	X7	Y7	Z7	X8	Y8	Z8	X9	Y9	Z9	X10	Y10	Z10	X11	Y11	Z11	X12	Y12	Z12	X13	Y13	Z13	X14	Y14	Z14	X15	Y15	Z15	X16	Y16	Z16	X17	Y17	Z17	X18	Y18	Z18	X19	Y19	Z19	X20	Y20	Z20	X21	Y21	Z21	X22	Y22	Z22	X23	Y23	Z23	X24	Y24	Z24	X25	Y25	Z25	X26	Y26	Z26	X27	Y27	Z27	X28	Y28	Z28	X29	Y29	Z29	X30	Y30	Z30	X31	Y31	Z31	X32	Y32	Z32	X33	Y33	Z33	X34	Y34	Z34	X35	Y35	Z35	X36	Y36	Z36	X37	Y37	Z37	X38	Y38	Z38	X39	Y39	Z39	X40	Y40	Z40	X41	Y41	Z41	X42	Y42	Z42	X43	Y43	Z43	X44	Y44	Z44	X45	Y45	Z45	X46	Y46	Z46	X47	Y47	Z47	X48	Y48	Z48	X49	Y49	Z49	X50	Y50	Z50	X51	Y51	Z51	X52	Y52	Z52	X53	Y53	Z53	X54	Y54	Z54	X55	Y55	Z55	X56	Y56	Z56	X57	Y57	Z57	X58	Y58	Z58	X59	Y59	Z59	X60	Y60	Z60	X61	Y61	Z61	X62	Y62	Z62	X63	Y63	Z63	

1	0	-259.8487854003907	1773.608642578125	-824.6054687500002	-398.1997070312501	1693.6416015625	-945.757995605469	-376.2679138183594	1708.173828125	-807.0257568359377	-413.7798767089845	1558.270874023438	-882.943786621094	-424.264129638672	1241.658203125	-890.786071777344	-268.4648742675782	1488.697631835938	-887.4888916015627	-339.9709167480469	1535.85400390625	-1073.722900390625	-435.3981933593751	1398.6474609375	-1228.618530273438	-397.103973388672	1365.880126953125	-1236.030517578125	-439.2969665527345	1344.46923828125	-1273.101806640625	-435.5024414062501	1279.301879882813	-1303.652954101563	-507.5452880859376	1258.883056640625	-1254.554321289063	-394.1089172363282	1044.615356445313	-1130.89794921875	-347.7723083496094	1030.2509765625	-1189.30078125	-341.3579101562501	1054.100341796875	-1085.162475585938	-305.7526245117188	1531.741821289063	-693.3209228515626	-420.9945678710939	1413.530883789063	-541.9835815429689	-389.5018615722657	1376.33837890625	-528.8383178710939	-438.0512084960939	1362.607666015625	-496.5199279785157	-432.7103881835939	1298.119262695313	-465.2178039550782	-508.3622131347657	1282.982177734375	-512.0382080078126	-375.9571228027344	1097.350463867188	-677.2904663085939	-362.4972534179688	1049.89599609375	-619.1826171875001	-318.4869995117188	1075.266235351563	-721.0004272460939	-263.6660156250001	1050.05078125	-1007.61474609375	-262.5013732910157	1038.147338867188	-787.0869750976565	-440.9570922851564	1115.720336914063	-891.2241210937502	-448.4358215332032	1085.307250976563	-919.6531372070315	-452.7456054687501	1084.4912109375	-862.0068969726565	-310.9122009277344	778.010437011719	-1096.782958984375	-268.2879638671876	704.8231811523439	-1104.098876953125	-220.7954254150391	713.7133178710939	-1097.890625	-287.2107238769532	648.4093017578126	-1091.811279296875	-270.0369567871094	528.3278808593751	-1096.6748046875	-231.9828643798829	500.4642028808595	-984.7666625976565	-220.0096282958985	378.7330322265626	-1081.235229492188	-292.6180419921876	345.1654663085938	-1120.685302734375	-252.5210418701172	336.9853820800782	-1104.884643554688	-259.9266052246094	256.2517395019532	-1067.43408203125	-343.6696777343751	99.42517089843753	-1103.1728515625	-319.1160888671876	94.21205902099611	-1018.946716308594	-410.3848266601564	41.35182571411134	-1061.887817382813	-175.6220092773438	57.417781829834	-1069.801025390625	-186.2530822753907	57.08197402954103	-1112.340454101563	-234.8674621582032	32.29717636108399	-1159.02978515625	-297.0036926269532	779.8498535156252	-695.0726928710939	-248.4700469970704	734.5612182617189	-685.1097412109376	-217.4781188964844	742.6250610351564	-690.6030273437501	-261.1384582519532	649.4033813476564	-688.6503906250001	-270.4292602539063	510.1380920410157	-701.9678955078126	-223.0395660400391	493.462127685547	-809.5795898437502	-244.3231506347657	300.2770385742188	-699.0775146484376	-333.5027160644532	240.8961486816407	-693.2224731445314	-288.0829772949219	230.0476074218751	-689.8024291992189	-270.4451904296876	177.737533569336	-713.7412109375001	-344.0397949218751	91.68691253662111	-691.3330688476564	-305.9198608398438	99.11096191406253	-773.5120239257815	-406.3325500488282	39.72848510742188	-744.1377563476564	-172.8835601806641	53.49135589599611	-714.6989746093751	-184.7829132080078	60.03746032714845	-670.4366455078126	-242.7804565429688	31.98188018798829	-626.3330078125001	nan	nan	nan	nan	nan	nan	
2	0.005	-259.8854980468751	1773.577880859375	-824.8925781250002	-398.1329956054689	1693.515502929688	-946.031677246094	-376.2408447265626	1708.14892578125	-807.3455200195315	-413.6048278808595	1558.210571289063	-883.1460571289065	-424.2715454101564	1241.660766601563	-890.924499511719	-268.4031372070313	1488.634887695313	-887.693542480469	-339.8266906738282	1535.761962890625	-1073.982299804688	-435.2266235351564	1398.50830078125	-1228.875	-397.0554199218751	1365.724487304688	-1236.220092773438	-439.2517700195314	1344.395751953125	-1273.287109375	-435.3451538085939	1279.177978515625	-1303.84912109375	-507.1786193847657	1257.976440429688	-1255.051879882813	-393.9693908691407	1044.484375	-1131.013427734375	-347.7483215332032	1030.0693359375	-1189.411376953125	-341.4063720703126	1054.00732421875	-1085.306518554688	-305.6887207031251	1531.718383789063	-693.5712890625001	-420.9541931152345	1413.587524414063	-542.1594848632814	-389.452850341797	1376.428466796875	-529.0253906250001	-437.9565734863282	1362.685302734375	-496.7354125976564	-432.7333984375001	1298.230712890625	-465.3779602050782	-508.2986450195314	1283.021118164063	-512.2332763671876	-375.9125061035157	1097.333251953125	-677.4237670898439	-362.5048217773438	1049.88916015625	-619.3215332031251	-318.5604248046876	1075.2294921875	-721.1341552734376	-263.7934570312501	1049.831787109375	-1007.689819335938	-262.5722656250001	1038.059814453125	-787.2207031250002	-441.0855102539064	1115.779418945313	-891.3694458007815	-448.5001220703126	1085.3291015625	-919.749938964844	-452.8318786621095	1084.532104492188	-862.142028808594	-311.0165710449219	777.9285278320315	-1096.8916015625	-268.3518371582032	704.8201904296876	-1104.255981445313	-220.8287658691407	713.6826782226564	-1098.027221679688	-287.2236633300782	648.3091430664064	-1091.897094726563	-270.0117187500001	528.3137207031251	-1096.777465820313	-231.9737396240235	500.4900207519532	-984.8449707031252	-219.9352111816407	378.6955566406251	-1081.28173828125	-292.5196533203126	345.1054687500001	-1120.73779296875	-252.4165802001954	336.9413757324219	-1104.947509765625	-259.8954772949219	256.2235717773438	-1067.449340820313	-343.6455688476563	99.40663146972659	-1103.146728515625	-319.1160888671876	94.21205902099611	-1018.946716308594	-410.482879638672	40.89391326904298	-1061.908325195313	-175.5745544433594	57.42137908935548	-1069.77685546875	-186.2012023925782	57.08304977416994	-1112.3642578125	-234.8549804687501	32.31217193603516	-1159.015502929688	-297.0766906738282	779.8197021484377	-695.1610107421876	-248.5162353515626	734.5327148437501	-685.1826171875001	-217.5224304199219	742.6257934570314	-690.7116088867189	-261.1209716796876	649.3514404296876	-688.6644897460939	-270.3779602050782	510.114715576172	-701.9869384765626	-223.0493774414063	493.4225158691407	-809.5910644531252	-244.3231506347657	300.2770385742188	-699.0775146484376	-333.4840698242188	240.9083251953126	-693.2136230468751	-288.0916748046876	230.0546112060547	-689.8008422851564	-270.4400329589844	177.728271484375	-713.7212524414064	-344.0288085937501	91.67855072021486	-691.3276977539064	-305.9022216796876	99.12820434570315	-773.508728027344	-406.3269653320314	39.7413673400879	-744.1353149414064	-172.9397125244141	53.48138427734376	-714.7152099609376	-184.8088531494141	60.0249366760254	-670.4049072265626	-242.7504425048829	31.98168945312501	-626.3300170898439	nan	nan	nan	nan	nan	nan	
3	0.01	-259.9347229003907	1773.531616210938	-825.1979980468752	-398.0300598144532	1693.399291992188	-946.3592529296877	-376.2272338867188	1708.115966796875	-807.5897216796877	-413.4929504394532	1558.215576171875	-883.4061279296877	-424.2248535156251	1241.662719726563	-890.998229980469	-268.3569946289063	1488.580322265625	-887.846374511719	-339.7193603515626	1535.661743164063	-1074.172729492188	-435.057098388672	1398.385009765625	-1229.0986328125	-396.9468688964845	1365.5703125	-1236.361572265625	-439.1748962402345	1344.240234375	-1273.482055664063	-435.2188110351564	1279.036743164063	-1304.060180664063	-508.0208435058595	1258.805053710938	-1255.351440429688	-395.8447265625001	1044.654541015625	-1131.968994140625	-347.7790832519532	1029.9404296875	-1189.554931640625	-341.7161865234376	1053.671997070313	-1085.203979492188	-305.6575012207032	1531.752075195313	-693.8230590820314	-420.8738708496095	1413.676513671875	-542.3807983398439	-389.3760986328126	1376.487182617188	-529.2947998046876	-437.8969726562501	1362.757690429688	-496.9336242675782	-432.6844482421876	1298.291259765625	-465.572723388672	-508.2566833496095	1283.1142578125	-512.3999633789064	-375.9093933105469	1097.350341796875	-677.5722045898439	-362.5506591796876	1049.943115234375	-619.4688110351564	-318.5875244140626	1075.201904296875	-721.2807006835939	-263.9214782714844	1049.655639648438	-1007.815673828125	-262.6374511718751	1037.924072265625	-787.3918457031252	-441.179412841797	1115.764404296875	-891.477233886719	-448.6402587890626	1085.378051757813	-919.8989868164065	-452.947723388672	1084.52490234375	-862.3008422851565	-311.1575622558594	777.8767089843752	-1097.040161132813	-268.4213256835938	704.7325439453126	-1104.4033203125	-220.921127319336	713.6538085937501	-1098.164794921875	-287.2627563476563	648.2755737304689	-1091.987915039063	-269.9671325683594	528.2777709960939	-1096.865478515625	-231.8841857910157	500.4611816406251	-984.967468261719	-219.9483947753907	378.6740722656251	-1081.324584960938	-292.5396423339844	345.0856323242188	-1120.837158203125	-252.3601379394532	336.9413757324219	-1105.064453125	-259.8751220703126	256.1748657226563	-1067.479736328125	-343.6868896484376	99.39599609375003	-1103.174438476563	-319.1062011718751	94.22533416748048	-1018.946594238281	-410.5132446289064	40.90867233276368	-1061.882568359375	-175.5951385498047	57.41981887817384	-1069.801635742188	-186.2191162109375	57.08077621459962	-1112.365234375	-234.8425292968751	32.29493713378907	-1159.017211914063	-297.1248779296876	779.7546386718752	-695.2326660156251	-248.5843505859376	734.5214843750001	-685.2795410156251	-217.5211944580079	742.5787353515626	-690.8297729492189	-261.4278259277344	648.9412231445314	-688.9089965820314	-270.3559265136719	510.1169433593751	-702.0117797851564	-223.0043945312501	493.3907775878907	-809.606140136719	-244.3231506347657	300.2770080566407	-699.0775146484376	-333.4853210449219	240.9057769775391	-693.2136230468751	-288.1159667968751	230.0563964843751	-689.8048095703126	-270.4103698730469	177.7392578125	-713.7560424804689	-344.0397949218751	91.68691253662111	-691.3330688476564	-305.9238891601563	99.11423492431643	-773.4949951171877	-406.3269653320314	39.7413673400879	-744.1353149414064	-172.8927459716797	53.43730545043947	-714.6872558593751	-184.7969360351563	60.02148818969728	-670.4380493164064	-242.7537841796876	31.98736381530762	-626.2968750000001	nan	nan	nan	nan	nan	nan	
4	0.015	-259.5154724121094	1773.885131835938	-825.1094970703127	-397.7665100097657	1693.249755859375	-946.7838134765627	-376.0985412597657	1707.575073242188	-807.652282714844	-413.3532714843751	1558.197387695313	-883.6612548828127	-424.200164794922	1241.636474609375	-891.1345825195315	-268.2835388183594	1488.505737304688	-888.0449829101565	-339.5081787109376	1535.543212890625	-1074.433715820313	-434.8593139648439	1398.258544921875	-1229.330688476563	-396.8653869628907	1365.403930664063	-1236.501953125	-439.0123291015626	1344.153442382813	-1273.69384765625	-435.0610961914064	1278.9228515625	-1304.257080078125	-507.9588623046876	1258.765625	-1255.559326171875	-394.1533813476564	1044.198608398438	-1131.364624023438	-347.7968750000001	1029.808715820313	-1189.651977539063	-341.5830688476563	1053.7783203125	-1085.616455078125	-305.6048889160157	1531.7431640625	-694.0457153320314	-420.7780761718751	1413.679321289063	-542.6105346679689	-389.3088378906251	1376.520629882813	-529.5634765625001	-437.8370666503907	1362.818603515625	-497.163787841797	-432.6170654296876	1298.37890625	-465.7603759765626	-508.1865234375001	1283.175903320313	-512.5864868164064	-375.9092407226563	1097.341918945313	-677.7155761718751	-362.5216369628907	1049.932006835938	-619.5606689453126	-318.6831970214844	1075.1533203125	-721.4414672851564	-264.0271911621094	1049.50537109375	-1007.960083007813	-262.7228088378907	1037.822998046875	-787.5789794921877	-441.2401733398439	1115.828979492188	-891.6593017578127	-448.7048339843751	1085.3984375	-919.9890747070315	-453.0687866210939	1084.575073242188	-862.4341430664065	-311.1624145507813	777.767761230469	-1097.146850585938	-268.4442443847657	704.6735229492189	-1104.52587890625	-220.9900207519532	713.6391601562501	-1098.312622070313	-287.2256469726563	648.1885986328126	-1092.100341796875	-269.9190368652344	528.2101440429689	-1096.952880859375	-231.8257141113282	500.4702148437501	-985.0413208007815	-219.9008331298829	378.6583251953126	-1081.377197265625	-292.4310302734376	345.0415954589844	-1120.86669921875	-252.347152709961	336.8376770019532	-1105.05615234375	-259.8026428222657	256.1414184570313	-1067.589233398438	-343.6677856445313	99.41107177734378	-1103.186645507813	-319.1158142089844	94.22893524169923	-1018.949462890625	-410.5132446289064	40.90867233276368	-1061.882568359375	-175.5664520263672	57.386287689209	-1069.816772460938	-186.2192535400391	57.08086013793947	-1112.365234375	-234.8637084960938	32.28637695312501	-1159.065063476563	-297.1593627929688	779.744079589844	-695.2861938476564	-248.613021850586	734.5191040039064	-685.3734741210939	-217.536117553711	742.5983276367189	-690.9585571289064	-261.1182250976563	649.2766113281251	-688.7657470703126	-270.3072204589844	510.0969543457032	-702.0385742187501	-223.0082702636719	493.3924255371095	-809.5857543945315	-244.3231506347657	300.2770080566407	-699.0775146484376	-333.4405822753907	240.8890533447266	-693.2364501953126	-288.0736694335938	230.0572052001954	-689.7791137695314	-270.4022216796876	177.7132110595703	-713.7697753906251	-344.0635986328126	91.69984436035158	-691.3447875976564	-305.8786315917969	99.12653350830081	-773.5112915039065	-406.3433532714845	39.7624855041504	-744.1177368164064	-172.8744354248047	53.43007659912111	-714.6798706054689	-184.7867736816407	60.01010894775392	-670.4385375976564	-242.7652282714844	31.99145889282227	-626.2760620117189	nan	nan	nan	nan	nan	nan	
